<?xml version="1.0" encoding="UTF-8" standalone="no"?>
<svg
   xmlns:dc="http://purl.org/dc/elements/1.1/"
   xmlns:cc="http://creativecommons.org/ns#"
   xmlns:rdf="http://www.w3.org/1999/02/22-rdf-syntax-ns#"
   xmlns:svg="http://www.w3.org/2000/svg"
   xmlns="http://www.w3.org/2000/svg"
   xmlns:sodipodi="http://sodipodi.sourceforge.net/DTD/sodipodi-0.dtd"
   xmlns:inkscape="http://www.inkscape.org/namespaces/inkscape"
   data-name="Layer 1"
   viewBox="0 0 100 100"
   x="0px"
   y="0px"
   version="1.1"
   id="svg10"
   sodipodi:docname="creditors.svg"
   inkscape:version="0.92.2 2405546, 2018-03-11"
   width="100"
   height="100">
  <metadata
     id="metadata16">
    <rdf:RDF>
      <cc:Work
         rdf:about="">
        <dc:format>image/svg+xml</dc:format>
        <dc:type
           rdf:resource="http://purl.org/dc/dcmitype/StillImage" />
        <dc:title>Artboard 29</dc:title>
      </cc:Work>
    </rdf:RDF>
  </metadata>
  <defs
     id="defs14">
    <filter
       style="color-interpolation-filters:sRGB;"
       inkscape:label="Drop Shadow"
       id="filter1009">
      <feFlood
         flood-opacity="0.498039"
         flood-color="rgb(0,0,0)"
         result="flood"
         id="feFlood999" />
      <feComposite
         in="flood"
         in2="SourceGraphic"
         operator="in"
         result="composite1"
         id="feComposite1001" />
      <feGaussianBlur
         in="composite1"
         stdDeviation="1"
         result="blur"
         id="feGaussianBlur1003" />
      <feOffset
         dx="1"
         dy="3"
         result="offset"
         id="feOffset1005" />
      <feComposite
         in="SourceGraphic"
         in2="offset"
         operator="over"
         result="composite2"
         id="feComposite1007" />
    </filter>
  </defs>
  <sodipodi:namedview
     pagecolor="#ffffff"
     bordercolor="#666666"
     borderopacity="1"
     objecttolerance="10"
     gridtolerance="10"
     guidetolerance="10"
     inkscape:pageopacity="0"
     inkscape:pageshadow="2"
     inkscape:window-width="1339"
     inkscape:window-height="739"
     id="namedview12"
     showgrid="false"
     inkscape:zoom="4.464"
     inkscape:cx="26.031195"
     inkscape:cy="61.603943"
     inkscape:window-x="27"
     inkscape:window-y="0"
     inkscape:window-maximized="1"
     inkscape:current-layer="svg10" />
  <title
     id="title2">Artboard 29</title>
  <g
     id="g937"
     style="filter:url(#filter1009)">
    <circle
       r="41"
       cy="50"
       cx="50"
       id="path854"
       style="opacity:1;vector-effect:none;fill:#dcc5b6;fill-opacity:0.39607844;stroke:#ff6600;stroke-width:2.66666651;stroke-linecap:butt;stroke-linejoin:miter;stroke-miterlimit:4;stroke-dasharray:none;stroke-dashoffset:0;stroke-opacity:1" />
    <g
       transform="translate(-3.3549223e-5,25.005004)"
       id="g1536">
      <g
         id="g1512"
         transform="translate(0,-25)">
        <path
           id="path1488"
           d="M 9.16,56.72 A 6.73,6.73 0 0 0 15.88,50 34.16,34.16 0 0 1 50,15.88 6.725,6.725 0 1 0 50,2.43 47.62,47.62 0 0 0 2.43,50 6.73,6.73 0 0 0 9.16,56.72 Z"
           style="fill:#803300"
           inkscape:connector-curvature="0" />
        <path
           id="path1484"
           d="m 50.06,84.12 a 6.72,6.72 0 1 0 6.73,6.71 6.73,6.73 0 0 0 -6.73,-6.71 z"
           style="fill:#803300"
           inkscape:connector-curvature="0" />
        <path
           id="path1480"
           d="M 64.6,11.25 A 6.72,6.72 0 1 0 76.92,12.88 6.65,6.65 0 0 0 73.79,8.8 L 73.68,8.74 a 6.71,6.71 0 0 0 -9.08,2.51 z"
           style="fill:#803300"
           inkscape:connector-curvature="0" />
        <path
           id="path1476"
           d="m 33,79.59 a 6.73,6.73 0 0 0 -9.18,2.47 6.73,6.73 0 0 0 2.48,9.19 6.71,6.71 0 0 0 9.17,-2.48 A 6.72,6.72 0 0 0 33,79.59 Z"
           style="fill:#803300"
           inkscape:connector-curvature="0" />
        <path
           id="path1472"
           d="M 16.37,64 A 6.72,6.72 0 0 0 8.86,73.89 6.72,6.72 0 1 0 20.47,67.13 6.68,6.68 0 0 0 16.37,64 Z"
           style="fill:#803300"
           inkscape:connector-curvature="0" />
        <path
           id="path1468"
           d="m 82,76.2 a 6.72,6.72 0 0 0 9.1,-2.31 l 0.1,-0.15 A 6.73,6.73 0 0 0 79.57,67 6.73,6.73 0 0 0 82,76.2 Z"
           style="fill:#803300"
           inkscape:connector-curvature="0" />
        <path
           id="path1464"
           d="M 90.8,43.24 A 6.72,6.72 0 1 0 97.57,50 6.72,6.72 0 0 0 90.83,43.25 Z"
           style="fill:#803300"
           inkscape:connector-curvature="0" />
        <path
           id="path1460"
           d="m 88.73,35.38 a 6.72,6.72 0 1 0 -9.18,-2.45 6.7,6.7 0 0 0 9.18,2.45 z"
           style="fill:#803300"
           inkscape:connector-curvature="0" />
        <path
           id="path1456"
           d="M 70.48,92.07 A 6.72,6.72 0 1 0 67.1,79.53 v 0 a 6.72,6.72 0 0 0 3.39,12.54 z"
           style="fill:#803300"
           inkscape:connector-curvature="0" />
        <path
           id="path1452"
           d="M 62.74,66.53 A 13.48,13.48 0 0 0 65.61,55.41 14.31,14.31 0 0 0 58.38,45.6 55.48,55.48 0 0 0 52.5,42.9 l -0.76,-0.32 a 12,12 0 0 1 -3,-1.64 1,1 0 0 1 -0.48,-0.84 c 0,-0.27 0.31,-0.54 0.74,-0.73 a 3.86,3.86 0 0 1 1.37,-0.25 14,14 0 0 1 7,1.38 3.94,3.94 0 0 0 3.33,0.3 3.82,3.82 0 0 0 2,-2.56 c 0.33,-1 0.63,-2.07 0.93,-3.11 l 0.34,-1.2 A 3.74,3.74 0 0 0 61.73,29.22 22.77,22.77 0 0 0 56,27.54 l -0.39,-0.06 c 0,-0.12 0,-0.26 0,-0.38 0,-4.17 -0.77,-5.56 -5.19,-5.56 h -1.9 c -2.77,0.08 -4,1.31 -4.06,4.09 0,0.45 0,0.91 0,1.41 v 0.73 c 0,0.14 0,0.3 0,0.43 l -0.48,0.18 c -5.87,2.14 -9.16,6.35 -9.52,12.18 -0.31,5 2,9.1 7,12.06 a 37.37,37.37 0 0 0 5.38,2.51 c 0.75,0.3 1.5,0.6 2.24,0.93 a 9.14,9.14 0 0 1 2.15,1.25 1.66,1.66 0 0 1 0.7,1.43 1.62,1.62 0 0 1 -1,1.16 6.76,6.76 0 0 1 -3.53,0.45 18.68,18.68 0 0 1 -6.4,-1.94 4.62,4.62 0 0 0 -2.19,-0.65 c -2.3,0 -3,2.2 -3.22,2.92 -0.39,1.24 -0.73,2.47 -1.1,3.84 -0.76,2.77 -0.07,4.27 2.52,5.53 a 25.22,25.22 0 0 0 7,2 v 2.43 a 3.75,3.75 0 0 0 3.82,3.92 h 1.74 2 a 3.66,3.66 0 0 0 3.74,-3.85 c 0,-0.37 0,-0.74 0,-1.11 0,-0.7 0,-1.43 0,-2.15 a 14.51,14.51 0 0 0 7.43,-4.76 z"
           style="fill:#803300"
           inkscape:connector-curvature="0" />
      </g>
      <g
         id="g1500"
         transform="translate(0,-25)">
        <path
           id="path1486"
           d="M 50,5.43 A 3.72,3.72 0 1 1 50,12.87 37.16,37.16 0 0 0 12.88,50 3.72,3.72 0 1 1 5.44,50 44.62,44.62 0 0 1 50,5.43 Z"
           style="fill:#d45500"
           inkscape:connector-curvature="0" />
        <path
           id="path1482"
           d="m 50.06,94.56 a 3.72,3.72 0 1 1 3.71,-3.73 3.74,3.74 0 0 1 -3.69,3.74 z"
           style="fill:#d45500"
           inkscape:connector-curvature="0" />
        <path
           id="path1478"
           d="m 67.2,12.75 a 3.7,3.7 0 0 1 5.08,-1.35 l 0.1,0.05 a 3.72,3.72 0 0 1 1.27,5 3.74,3.74 0 0 1 -3.22,1.86 3.7,3.7 0 0 1 -1.86,-0.51 v 0 A 3.73,3.73 0 0 1 67.2,12.75 Z"
           style="fill:#d45500"
           inkscape:connector-curvature="0" />
        <path
           id="path1474"
           d="m 32.87,87.27 a 3.75,3.75 0 0 1 -3.23,1.87 3.72,3.72 0 1 1 1.86,-7 v 0 a 3.73,3.73 0 0 1 1.37,5.08 z"
           style="fill:#d45500"
           inkscape:connector-curvature="0" />
        <path
           id="path1470"
           d="m 16.54,73.72 a 3.71,3.71 0 0 1 -1.87,0.5 3.72,3.72 0 0 1 -1.88,-6.94 v 0 a 3.67,3.67 0 0 1 1.86,-0.51 3.73,3.73 0 0 1 1.88,6.95 z"
           style="fill:#d45500"
           inkscape:connector-curvature="0" />
        <path
           id="path1466"
           d="m 82.14,68.52 a 3.7,3.7 0 0 1 2.26,-1.73 3.74,3.74 0 0 1 1,-0.13 3.69,3.69 0 0 1 1.85,0.5 v 0 a 3.73,3.73 0 0 1 1.44,5 l -0.08,0.12 a 3.71,3.71 0 0 1 -3.22,1.85 3.65,3.65 0 0 1 -1.86,-0.5 3.73,3.73 0 0 1 -1.36,-5.1 z"
           style="fill:#d45500"
           inkscape:connector-curvature="0" />
        <path
           id="path1462"
           d="M 90.8,53.68 A 3.72,3.72 0 1 1 94.57,50 3.73,3.73 0 0 1 90.84,53.69 Z"
           style="fill:#d45500"
           inkscape:connector-curvature="0" />
        <path
           id="path1458"
           d="m 82.15,31.43 a 3.73,3.73 0 0 1 1.35,-5.09 3.72,3.72 0 1 1 1.87,6.95 3.75,3.75 0 0 1 -3.22,-1.86 z"
           style="fill:#d45500"
           inkscape:connector-curvature="0" />
        <path
           id="path1454"
           d="m 68.6,82.13 a 3.72,3.72 0 1 1 1.88,6.95 3.72,3.72 0 0 1 -1.88,-6.95 z"
           style="fill:#d45500"
           inkscape:connector-curvature="0" />
        <path
           id="path4"
           d="m 54.41,68.47 a 2.49,2.49 0 0 0 -2.08,2.75 c 0,0.72 0,1.44 0,2.2 0,0.38 0,0.77 0,1.15 0,0.71 -0.29,0.85 -0.81,0.86 -1.21,0 -2.41,0 -3.61,0 -0.55,0 -0.87,-0.17 -0.88,-1 L 47,72 a 3.8,3.8 0 0 0 -0.29,-1.91 1.51,1.51 0 0 0 -0.4,-0.46 3.64,3.64 0 0 0 -1.74,-0.51 22.59,22.59 0 0 1 -6.29,-1.8 c -1.3,-0.63 -1.31,-0.67 -0.94,-2 0.37,-1.33 0.7,-2.54 1.07,-3.73 a 2.66,2.66 0 0 1 0.36,-0.82 2.14,2.14 0 0 1 0.8,0.31 21.6,21.6 0 0 0 7.43,2.22 9.76,9.76 0 0 0 5.1,-0.67 4.39,4.39 0 0 0 1,-7.65 12,12 0 0 0 -2.85,-1.68 c -0.77,-0.34 -1.55,-0.65 -2.33,-1 A 34.91,34.91 0 0 1 43,50 c -4,-2.41 -5.79,-5.37 -5.55,-9.3 0.28,-4.68 2.75,-7.8 7.55,-9.54 2.06,-0.75 2.45,-1.29 2.46,-3.42 V 27 c 0,-0.43 0,-0.85 0,-1.28 a 2.51,2.51 0 0 1 0.14,-1 v 0 a 2.12,2.12 0 0 1 1,-0.16 h 1.83 a 5,5 0 0 1 2,0.19 8.48,8.48 0 0 1 0.21,2.38 c 0,2.39 0.56,3 2.93,3.4 A 19.84,19.84 0 0 1 60.49,32 c 0.67,0.29 0.72,0.61 0.57,1.13 l -0.35,1.21 c -0.29,1 -0.57,2 -0.92,3.08 a 2.69,2.69 0 0 1 -0.27,0.66 1.58,1.58 0 0 1 -0.84,-0.25 17,17 0 0 0 -8.44,-1.67 6.63,6.63 0 0 0 -2.41,0.5 4,4 0 0 0 -2.51,3.08 3.91,3.91 0 0 0 1.58,3.57 14.85,14.85 0 0 0 3.68,2.07 l 0.76,0.32 a 53.34,53.34 0 0 1 5.57,2.55 v 0 a 11.32,11.32 0 0 1 5.75,7.75 10.49,10.49 0 0 1 -2.24,8.65 11.59,11.59 0 0 1 -6.01,3.83 z"
           style="fill:#d45500"
           inkscape:connector-curvature="0" />
      </g>
    </g>
  </g>
</svg>
