<?xml version="1.0" encoding="UTF-8" standalone="no"?>
<!-- Created with Inkscape (http://www.inkscape.org/) -->

<svg
   xmlns:dc="http://purl.org/dc/elements/1.1/"
   xmlns:cc="http://creativecommons.org/ns#"
   xmlns:rdf="http://www.w3.org/1999/02/22-rdf-syntax-ns#"
   xmlns:svg="http://www.w3.org/2000/svg"
   xmlns="http://www.w3.org/2000/svg"
   xmlns:sodipodi="http://sodipodi.sourceforge.net/DTD/sodipodi-0.dtd"
   xmlns:inkscape="http://www.inkscape.org/namespaces/inkscape"
   width="0.94999999in"
   height="0.80000001in"
   viewBox="0 0 24.13 20.320001"
   version="1.1"
   id="svg861"
   inkscape:version="0.92.2 2405546, 2018-03-11"
   sodipodi:docname="karma.svg">
  <defs
     id="defs855">
    <filter
       style="color-interpolation-filters:sRGB"
       inkscape:label="Drop Shadow"
       id="filter1582"
       width="2"
       height="2">
      <feFlood
         flood-opacity="0.498039"
         flood-color="rgb(0,0,0)"
         result="flood"
         id="feFlood1572" />
      <feComposite
         in="flood"
         in2="SourceGraphic"
         operator="in"
         result="composite1"
         id="feComposite1574" />
      <feGaussianBlur
         in="composite1"
         stdDeviation="1"
         result="blur"
         id="feGaussianBlur1576" />
      <feOffset
         dx="1"
         dy="3"
         result="offset"
         id="feOffset1578" />
      <feComposite
         in="SourceGraphic"
         in2="offset"
         operator="over"
         result="composite2"
         id="feComposite1580" />
    </filter>
    <filter
       style="color-interpolation-filters:sRGB"
       inkscape:label="Drop Shadow"
       id="filter2550">
      <feFlood
         flood-opacity="0.498039"
         flood-color="rgb(0,0,0)"
         result="flood"
         id="feFlood2540" />
      <feComposite
         in="flood"
         in2="SourceGraphic"
         operator="in"
         result="composite1"
         id="feComposite2542" />
      <feGaussianBlur
         in="composite1"
         stdDeviation="1"
         result="blur"
         id="feGaussianBlur2544" />
      <feOffset
         dx="1"
         dy="1"
         result="offset"
         id="feOffset2546" />
      <feComposite
         in="SourceGraphic"
         in2="offset"
         operator="over"
         result="composite2"
         id="feComposite2548" />
    </filter>
  </defs>
  <sodipodi:namedview
     id="base"
     pagecolor="#ffffff"
     bordercolor="#666666"
     borderopacity="1.0"
     inkscape:pageopacity="0.0"
     inkscape:pageshadow="2"
     inkscape:zoom="6.4583335"
     inkscape:cx="48"
     inkscape:cy="43.199999"
     inkscape:document-units="in"
     inkscape:current-layer="layer1"
     showgrid="false"
     units="in"
     inkscape:window-width="1339"
     inkscape:window-height="739"
     inkscape:window-x="27"
     inkscape:window-y="0"
     inkscape:window-maximized="1" />
  <metadata
     id="metadata858">
    <rdf:RDF>
      <cc:Work
         rdf:about="">
        <dc:format>image/svg+xml</dc:format>
        <dc:type
           rdf:resource="http://purl.org/dc/dcmitype/StillImage" />
        <dc:title></dc:title>
      </cc:Work>
    </rdf:RDF>
  </metadata>
  <g
     inkscape:label="Layer 1"
     inkscape:groupmode="layer"
     id="layer1"
     transform="translate(0,-276.68)">
    <g
       id="g1570"
       style="filter:url(#filter2550)"
       transform="translate(-1.2699997,0.0821105)">
      <path
         inkscape:connector-curvature="0"
         id="path1446"
         d="m 24.006858,283.60608 c -0.146318,-0.2266 -0.399859,-0.36199 -0.670016,-0.35322 -0.12069,0.003 -1.821959,0.0558 -3.696411,0.40148 -0.296482,-2.6373 -1.143843,-5.28322 -1.19557,-5.44316 -0.08314,-0.25662 -0.294176,-0.45143 -0.556571,-0.51362 -0.262316,-0.0622 -0.538481,0.0171 -0.727976,0.20913 -0.07988,0.081 -1.010463,1.03086 -2.048095,2.3468 -0.852604,-1.81133 -1.683033,-3.17216 -1.754144,-3.28784 -0.140547,-0.2286 -0.3897,-0.36776 -0.657866,-0.36776 -0.0011,0 -0.0034,0 -0.0045,0 -0.269775,10e-4 -0.519165,0.14362 -0.658012,0.37499 -0.07054,0.11754 -0.888851,1.49114 -1.734142,3.30032 -1.043865,-1.32611 -1.9833518,-2.28509 -2.0636318,-2.36643 -0.1895061,-0.1922 -0.4655248,-0.27171 -0.7279871,-0.20914 -0.2624624,0.0622 -0.4735235,0.25693 -0.556571,0.51363 -0.05175,0.15994 -0.8991557,2.80594 -1.1955706,5.44331 -1.8744515,-0.34575 -3.575788,-0.39832 -3.6963992,-0.40163 -0.2726324,-0.009 -0.5237885,0.12654 -0.6700272,0.35322 -0.1462499,0.22668 -0.1636424,0.51324 -0.0459,0.75592 0.07515,0.15493 1.5412491,3.15169 3.3201769,5.0757 -0.6089846,1.8957 0.013275,3.68733 0.04995,3.78908 0.080887,0.22482 0.2613936,0.39947 0.4887672,0.47313 0.068625,0.0222 0.8866121,0.27894 1.9751165,0.27894 0.804577,0 1.7566083,-0.14154 2.6624013,-0.62092 0.938801,1.53847 2.435939,2.26138 2.527458,2.30441 0.104175,0.049 0.216517,0.0735 0.328736,0.0735 0.120611,0 0.241143,-0.0281 0.351371,-0.0845 0.08977,-0.0459 1.545861,-0.80726 2.479735,-2.30578 0.913252,0.49006 1.875452,0.63338 2.687488,0.63338 1.088201,0 1.906537,-0.2567 1.975117,-0.27894 0.227295,-0.0736 0.407789,-0.24831 0.488767,-0.47313 0.03668,-0.10181 0.661398,-1.8947 0.05175,-3.79116 1.778084,-1.9241 3.243126,-4.91869 3.318332,-5.07362 0.117607,-0.24277 0.100237,-0.52933 -0.04601,-0.756 z"
         style="fill:#66ff00;stroke-width:0.07696993" />
      <path
         style="fill:#338000;stroke-width:0.07696993"
         id="path2"
         d="m 24.006858,283.60608 c -0.146318,-0.2266 -0.399859,-0.36199 -0.670016,-0.35322 -0.12069,0.003 -1.821959,0.0558 -3.696411,0.40148 -0.296482,-2.6373 -1.143843,-5.28322 -1.19557,-5.44316 -0.08314,-0.25662 -0.294176,-0.45143 -0.556571,-0.51362 -0.262316,-0.0622 -0.538481,0.0171 -0.727976,0.20913 -0.07988,0.081 -1.010463,1.03086 -2.048095,2.3468 -0.852604,-1.81133 -1.683033,-3.17216 -1.754144,-3.28784 -0.140547,-0.2286 -0.3897,-0.36776 -0.657866,-0.36776 -0.0011,0 -0.0034,0 -0.0045,0 -0.269775,10e-4 -0.519165,0.14362 -0.658012,0.37499 -0.07054,0.11754 -0.888851,1.49114 -1.734142,3.30032 -1.0438649,-1.32611 -1.9833517,-2.28509 -2.0636318,-2.36643 -0.189506,-0.1922 -0.4655246,-0.27171 -0.727987,-0.20914 -0.2624625,0.0622 -0.4735235,0.25693 -0.5565709,0.51363 -0.05175,0.15994 -0.8991558,2.80594 -1.1955707,5.44331 -1.8744515,-0.34575 -3.575788,-0.39832 -3.6963992,-0.40163 -0.2726324,-0.009 -0.5237885,0.12654 -0.6700272,0.35322 -0.1462499,0.22668 -0.1636424,0.51324 -0.0459,0.75592 0.07515,0.15493 1.5412491,3.15169 3.320177,5.0757 -0.6089846,1.8957 0.013274,3.68733 0.04995,3.78908 0.080887,0.22482 0.2613936,0.39947 0.4887672,0.47313 0.068625,0.0222 0.8866122,0.27894 1.9751165,0.27894 0.804577,0 1.7566085,-0.14154 2.6624013,-0.62092 0.9388008,1.53847 2.4359388,2.26138 2.5274578,2.30441 0.104175,0.049 0.216517,0.0735 0.328736,0.0735 0.120611,0 0.241143,-0.0281 0.351371,-0.0845 0.08977,-0.0459 1.545861,-0.80726 2.479735,-2.30578 0.913252,0.49006 1.875452,0.63338 2.687488,0.63338 1.088201,0 1.906537,-0.2567 1.975117,-0.27894 0.227295,-0.0736 0.407789,-0.24831 0.488767,-0.47313 0.03668,-0.10181 0.661398,-1.8947 0.05175,-3.79116 1.778084,-1.9241 3.243126,-4.91869 3.318332,-5.07362 0.117607,-0.24277 0.100237,-0.52933 -0.04601,-0.756 z m -7.199614,4.59056 c 0.140704,-0.42588 0.217901,-0.88038 0.217901,-1.35282 0,-1.51585 -0.539628,-3.32233 -1.205189,-4.97395 0.539021,-0.72683 1.08928,-1.38508 1.530618,-1.88784 0.510851,1.93471 1.118834,4.96201 0.718053,6.69469 0,7e-5 0,7e-5 0,7e-5 -0.132615,0.57343 -0.762232,1.20828 -1.261383,1.51985 z m -4.100342,-9.25955 c 0.999529,1.82895 2.77354,5.42483 2.77354,7.90673 0,1.53308 -1.247219,2.78031 -2.780312,2.78031 -1.533082,0 -2.7803008,-1.24723 -2.7803008,-2.78031 6.7e-5,-2.38753 1.7881638,-6.04807 2.7870728,-7.90673 z m -4.1133465,9.26047 c -0.4992296,-0.31164 -1.1290718,-0.94734 -1.2616979,-1.52077 0,0 0,0 0,-7e-5 -0.4258686,-1.84127 0.2560836,-4.94447 0.7201344,-6.69238 0.4455787,0.50769 1.0018462,1.17355 1.545322,1.90831 -0.6730198,1.66809 -1.2219744,3.47935 -1.2219744,4.95117 0,0.47274 0.0774,0.92756 0.2182159,1.35374 z m -2.9341784,-2.99382 c -0.00675,0.65486 0.041512,1.2764 0.1674899,1.82103 0.2256076,0.97545 0.8175821,1.80456 1.666788,2.3348 0.110925,0.0693 0.2244373,0.13217 0.3402785,0.18897 -0.3698324,0.0157 -0.7344447,-0.0833 -1.0506368,-0.28979 -1.2143471,-0.7931 -2.5692511,-2.88114 -3.4103795,-4.37113 0.647932,0.0601 1.4615766,0.15818 2.2864599,0.31612 z m 0.408251,7.11841 c -0.085837,-0.38724 -0.1784924,-1.02955 -0.078975,-1.74006 0.5368611,0.33767 1.1450019,0.5137 1.7664515,0.5137 0.2297587,0 0.4612048,-0.024 0.6912671,-0.0722 0.2257539,-0.0474 0.4428115,-0.11754 0.6494733,-0.20744 0.010131,0.39425 0.06199,0.76231 0.1463961,1.10521 -1.1626303,0.67033 -2.5235308,0.52771 -3.1746241,0.40078 z m 6.6185749,1.74599 c -0.661095,-0.4211 -2.047634,-1.52617 -2.047634,-3.38638 0,-0.0122 8.73e-4,-0.0242 8.73e-4,-0.0363 0.612979,0.33358 1.315102,0.52324 2.060718,0.52324 0.745604,0 1.447716,-0.18966 2.060706,-0.52324 2.36e-4,0.0122 8.73e-4,0.0242 8.73e-4,0.0363 0,1.77794 -1.411785,2.93879 -2.075725,3.38638 z m 6.647576,-1.74383 c -0.65124,0.13008 -2.013918,0.27724 -3.183782,-0.40633 0.08899,-0.34344 0.144247,-0.71066 0.154564,-1.10221 0.206741,0.09 0.423719,0.16033 0.64954,0.20775 0.23022,0.0483 0.461599,0.0722 0.691268,0.0722 0.622687,0 1.23229,-0.17665 1.769927,-0.51578 0.100238,0.71267 0.0056,1.35652 -0.08156,1.74437 z m -0.716658,-3.06556 c -0.316047,0.20643 -0.680569,0.30526 -1.050412,0.28971 0.115683,-0.0568 0.229218,-0.11969 0.340053,-0.18889 0.849206,-0.53016 1.441192,-1.35935 1.666788,-2.3348 0.125921,-0.54463 0.173869,-1.16601 0.167479,-1.8208 0.825198,-0.15801 1.639,-0.25631 2.28709,-0.31643 -0.840364,1.48946 -2.19457,3.57673 -3.410998,4.37121 z"
         inkscape:connector-curvature="0" />
    </g>
  </g>
</svg>
