<?xml version="1.0" encoding="UTF-8" standalone="no"?>
<svg
   xmlns:dc="http://purl.org/dc/elements/1.1/"
   xmlns:cc="http://creativecommons.org/ns#"
   xmlns:rdf="http://www.w3.org/1999/02/22-rdf-syntax-ns#"
   xmlns:svg="http://www.w3.org/2000/svg"
   xmlns="http://www.w3.org/2000/svg"
   xmlns:sodipodi="http://sodipodi.sourceforge.net/DTD/sodipodi-0.dtd"
   xmlns:inkscape="http://www.inkscape.org/namespaces/inkscape"
   viewBox="0 0 100 100"
   version="1.1"
   id="svg1827"
   sodipodi:docname="creditors2.svg"
   width="100"
   height="100"
   inkscape:version="0.92.2 2405546, 2018-03-11">
  <metadata
     id="metadata1833">
    <rdf:RDF>
      <cc:Work
         rdf:about="">
        <dc:format>image/svg+xml</dc:format>
        <dc:type
           rdf:resource="http://purl.org/dc/dcmitype/StillImage" />
        <dc:title></dc:title>
      </cc:Work>
    </rdf:RDF>
  </metadata>
  <defs
     id="defs1831">
    <filter
       style="color-interpolation-filters:sRGB;"
       inkscape:label="Drop Shadow"
       id="filter2528">
      <feFlood
         flood-opacity="0.498039"
         flood-color="rgb(0,0,0)"
         result="flood"
         id="feFlood2518" />
      <feComposite
         in="flood"
         in2="SourceGraphic"
         operator="in"
         result="composite1"
         id="feComposite2520" />
      <feGaussianBlur
         in="composite1"
         stdDeviation="1"
         result="blur"
         id="feGaussianBlur2522" />
      <feOffset
         dx="1"
         dy="3"
         result="offset"
         id="feOffset2524" />
      <feComposite
         in="SourceGraphic"
         in2="offset"
         operator="over"
         result="composite2"
         id="feComposite2526" />
    </filter>
    <filter
       style="color-interpolation-filters:sRGB;"
       inkscape:label="Drop Shadow"
       id="filter2609">
      <feFlood
         flood-opacity="0.498039"
         flood-color="rgb(0,0,0)"
         result="flood"
         id="feFlood2599" />
      <feComposite
         in="flood"
         in2="SourceGraphic"
         operator="in"
         result="composite1"
         id="feComposite2601" />
      <feGaussianBlur
         in="composite1"
         stdDeviation="1"
         result="blur"
         id="feGaussianBlur2603" />
      <feOffset
         dx="1"
         dy="3"
         result="offset"
         id="feOffset2605" />
      <feComposite
         in="SourceGraphic"
         in2="offset"
         operator="over"
         result="composite2"
         id="feComposite2607" />
    </filter>
  </defs>
  <sodipodi:namedview
     pagecolor="#ffffff"
     bordercolor="#666666"
     borderopacity="1"
     objecttolerance="10"
     gridtolerance="10"
     guidetolerance="10"
     inkscape:pageopacity="0"
     inkscape:pageshadow="2"
     inkscape:window-width="1339"
     inkscape:window-height="739"
     id="namedview1829"
     showgrid="false"
     inkscape:zoom="5.58"
     inkscape:cx="50"
     inkscape:cy="50"
     inkscape:window-x="27"
     inkscape:window-y="0"
     inkscape:window-maximized="1"
     inkscape:current-layer="svg1827"
     inkscape:snap-bbox="true"
     inkscape:snap-bbox-midpoints="true" />
  <g
     id="g2597"
     style="filter:url(#filter2609)">
    <path
       inkscape:transform-center-y="3.1125763"
       d="M 50.000001,88.48526 19,65.962442 30.840945,29.519756 l 38.318108,-1e-6 11.840948,36.442686 z"
       inkscape:randomized="0"
       inkscape:rounded="0"
       inkscape:flatsided="true"
       sodipodi:arg2="2.1991149"
       sodipodi:arg1="1.5707963"
       sodipodi:r2="26.370174"
       sodipodi:r1="32.595329"
       sodipodi:cy="55.889932"
       sodipodi:cx="50"
       sodipodi:sides="5"
       id="path2551"
       style="opacity:1;vector-effect:none;fill:#fbfcff;fill-opacity:0.39607844;stroke:#0044aa;stroke-width:2.66700006;stroke-linecap:butt;stroke-linejoin:round;stroke-miterlimit:4;stroke-dasharray:none;stroke-dashoffset:0;stroke-opacity:1"
       sodipodi:type="star" />
    <g
       id="g2516">
      <path
         style="color:#000000;font-style:normal;font-variant:normal;font-weight:normal;font-stretch:normal;font-size:medium;line-height:normal;font-family:sans-serif;font-variant-ligatures:normal;font-variant-position:normal;font-variant-caps:normal;font-variant-numeric:normal;font-variant-alternates:normal;font-feature-settings:normal;text-indent:0;text-align:start;text-decoration:none;text-decoration-line:none;text-decoration-style:solid;text-decoration-color:#000000;letter-spacing:normal;word-spacing:normal;text-transform:none;writing-mode:lr-tb;direction:ltr;text-orientation:mixed;dominant-baseline:auto;baseline-shift:baseline;text-anchor:start;white-space:normal;shape-padding:0;clip-rule:nonzero;display:inline;overflow:visible;visibility:visible;opacity:1;isolation:auto;mix-blend-mode:normal;color-interpolation:sRGB;color-interpolation-filters:linearRGB;solid-color:#000000;solid-opacity:1;vector-effect:none;fill:#0066ff;fill-opacity:1;fill-rule:nonzero;stroke:#0044aa;stroke-width:2.66700006;stroke-linecap:butt;stroke-linejoin:round;stroke-miterlimit:4;stroke-dasharray:none;stroke-dashoffset:0;stroke-opacity:1;color-rendering:auto;image-rendering:auto;shape-rendering:auto;text-rendering:auto;enable-background:accumulate"
         d="m 40.439453,37.765625 6.957031,5.019531 a 2.50025,2.50025 0 0 0 0.0098,0.0078 l 1.107422,0.791015 a 2.50025,2.50025 0 0 0 2.90625,0 l 1.109375,-0.791015 a 2.50025,2.50025 0 0 0 0.0059,-0.0039 l 6.931641,-4.980468 c 0.783465,0.823278 1.652249,1.497504 2.636719,2.078125 l -2.546875,7.904297 -0.421875,1.292968 a 2.50025,2.50025 0 0 0 0.902343,2.796875 l 1.09961,0.802735 7.892578,5.787109 c -0.402352,0.754698 -0.689076,1.544681 -0.927735,2.382813 l -9.576171,0.02539 a 2.50025,2.50025 0 0 0 -0.0059,0 l -1.367187,0.0059 a 2.50025,2.50025 0 0 0 -2.365235,1.724609 l -0.421875,1.292969 -3.300781,9.986328 c -0.338938,-0.02911 -0.649594,-0.144531 -0.996094,-0.144531 -0.369436,0 -0.704265,0.12548 -1.066406,0.158203 L 45.736328,63.957031 45.3125,62.660156 a 2.50025,2.50025 0 0 0 -2.363281,-1.724609 l -1.367188,-0.0059 a 2.50025,2.50025 0 0 0 -0.002,0 L 31.458984,60.882812 C 31.25827,60.133289 31.019558,59.422531 30.6875,58.736328 l 8.164062,-5.960937 1.105469,-0.802735 A 2.50025,2.50025 0 0 0 40.871094,49.1875 l -0.417969,-1.304688 -2.587891,-8.083984 c 0.959213,-0.571626 1.807442,-1.230706 2.574219,-2.033203 z"
         id="path2412"
         inkscape:connector-curvature="0" />
      <g
         id="g2436">
        <path
           id="path2418"
           d="M 50.000001,5.0173249 41.536856,30.800016 49.974662,36.881319 58.507336,30.755422 49.999595,5.0173249 Z"
           style="fill:#0066ff;fill-opacity:1;stroke:#0044aa;stroke-width:2.66700006;stroke-linejoin:round;stroke-miterlimit:4;stroke-dasharray:none"
           inkscape:connector-curvature="0" />
        <path
           id="path2410"
           d="M 31.084517,39.243539 2.667,39.376717 l 21.924512,16.014099 9.451356,-6.89214 -2.958553,-9.254729 z"
           style="fill:#0066ff;fill-opacity:1;stroke:#0044aa;stroke-width:2.66700006;stroke-linejoin:round;stroke-miterlimit:4;stroke-dasharray:none"
           inkscape:connector-curvature="0" />
        <path
           id="path2408"
           d="m 68.896023,39.294209 -2.939296,9.128437 9.502237,6.961875 c 0.04865,-0.02373 0.0973,-0.04659 0.145951,-0.06974 L 97.333,39.376678 68.896429,39.294581 Z"
           style="fill:#0066ff;fill-opacity:1;stroke:#0044aa;stroke-width:2.66700006;stroke-linejoin:round;stroke-miterlimit:4;stroke-dasharray:none"
           inkscape:connector-curvature="0" />
        <path
           id="path2402"
           d="M 70.289858,67.135623 59.907657,67.160713 56.189144,78.405039 79.253489,94.982672 70.289655,67.135376 Z"
           style="fill:#0066ff;fill-opacity:1;stroke:#0044aa;stroke-width:2.66700006;stroke-linejoin:round;stroke-miterlimit:4;stroke-dasharray:none"
           inkscape:connector-curvature="0" />
        <path
           id="path2400"
           d="M 29.646492,67.160716 20.746507,94.982675 43.836398,78.322342 40.187618,67.211398 29.646695,67.160725 Z"
           style="fill:#0066ff;fill-opacity:1;stroke:#0044aa;stroke-width:2.66700006;stroke-linejoin:round;stroke-miterlimit:4;stroke-dasharray:none"
           inkscape:connector-curvature="0" />
      </g>
      <path
         inkscape:connector-curvature="0"
         style="fill:#0066ff;fill-opacity:1;stroke:#0044aa;stroke-width:2.66700006;stroke-linejoin:round;stroke-miterlimit:4;stroke-dasharray:none"
         d="m 31.723702,24.667778 c -2.648204,0 -4.763524,2.115154 -4.763524,4.763682 0,2.648209 2.11532,4.763526 4.763687,4.763526 2.64869,0 4.758821,-2.115317 4.758821,-4.763689 0,-2.648684 -2.110131,-4.763846 -4.758659,-4.763846 z"
         id="path2416" />
      <path
         inkscape:connector-curvature="0"
         style="fill:#0066ff;fill-opacity:1;stroke:#0044aa;stroke-width:2.66700006;stroke-linejoin:round;stroke-miterlimit:4;stroke-dasharray:none"
         d="m 68.205998,24.74323 c -2.648528,0 -4.763685,2.114992 -4.763685,4.763519 0,2.648209 2.115157,4.758664 4.763685,4.758664 2.648529,0 4.763688,-2.110299 4.763688,-4.758664 0,-2.648527 -2.115159,-4.763682 -4.763688,-4.763682 z"
         id="path2414" />
      <path
         inkscape:connector-curvature="0"
         style="fill:#0066ff;fill-opacity:1;stroke:#0044aa;stroke-width:2.66700006;stroke-linejoin:round;stroke-miterlimit:4;stroke-dasharray:none"
         d="m 19.758093,59.223564 c -2.648528,-3.26e-4 -4.763686,2.114991 -4.763686,4.763363 0,2.648528 2.115158,4.763682 4.763686,4.763682 2.648529,0 4.763686,-2.115154 4.763686,-4.763682 0,-2.648208 -2.115157,-4.763689 -4.763686,-4.763689 z"
         id="path2406" />
      <path
         inkscape:connector-curvature="0"
         style="fill:#0066ff;fill-opacity:1;stroke:#0044aa;stroke-width:2.66700006;stroke-linejoin:round;stroke-miterlimit:4;stroke-dasharray:none"
         d="m 79.734927,59.362708 c -2.648525,0 -4.763683,2.115154 -4.763683,4.763682 0,2.648527 2.115158,4.76369 4.763683,4.76369 2.648535,0 4.763689,-2.115163 4.763689,-4.76369 0,-2.648528 -2.115154,-4.763526 -4.763689,-4.763526 z"
         id="path2404" />
      <path
         inkscape:connector-curvature="0"
         style="fill:#0066ff;fill-opacity:1;stroke:#0044aa;stroke-width:2.66700006;stroke-linejoin:round;stroke-miterlimit:4;stroke-dasharray:none"
         d="m 50.069591,81.223666 c -2.648204,0 -4.763524,2.115162 -4.763524,4.76369 0,2.648201 2.11532,4.763526 4.763686,4.763526 2.648691,0 4.763848,-2.115325 4.763848,-4.763689 0,-2.648692 -2.115157,-4.763846 -4.763685,-4.763846 z"
         id="path1823" />
    </g>
  </g>
</svg>
